<svg width="70" height="71" viewBox="0 0 70 71" fill="none" xmlns="http://www.w3.org/2000/svg">
<path d="M13.475 53.0202C16.45 50.7452 19.775 48.9515 23.45 47.639C27.125 46.3265 30.975 45.6702 35 45.6702C39.025 45.6702 42.875 46.3265 46.55 47.639C50.225 48.9515 53.55 50.7452 56.525 53.0202C58.5667 50.6286 60.1563 47.9161 61.2938 44.8827C62.4313 41.8494 63 38.6119 63 35.1702C63 27.4119 60.2729 20.8056 54.8188 15.3515C49.3646 9.89731 42.7583 7.17023 35 7.17023C27.2417 7.17023 20.6354 9.89731 15.1813 15.3515C9.72708 20.8056 7 27.4119 7 35.1702C7 38.6119 7.56875 41.8494 8.70625 44.8827C9.84375 47.9161 11.4333 50.6286 13.475 53.0202ZM35 38.6702C31.5583 38.6702 28.6563 37.489 26.2938 35.1265C23.9313 32.764 22.75 29.8619 22.75 26.4202C22.75 22.9786 23.9313 20.0765 26.2938 17.714C28.6563 15.3515 31.5583 14.1702 35 14.1702C38.4417 14.1702 41.3438 15.3515 43.7062 17.714C46.0688 20.0765 47.25 22.9786 47.25 26.4202C47.25 29.8619 46.0688 32.764 43.7062 35.1265C41.3438 37.489 38.4417 38.6702 35 38.6702ZM35 70.1702C30.1583 70.1702 25.6083 69.2515 21.35 67.414C17.0917 65.5765 13.3875 63.0827 10.2375 59.9327C7.0875 56.7827 4.59375 53.0786 2.75625 48.8202C0.91875 44.5619 0 40.0119 0 35.1702C0 30.3286 0.91875 25.7786 2.75625 21.5202C4.59375 17.2619 7.0875 13.5577 10.2375 10.4077C13.3875 7.25773 17.0917 4.76398 21.35 2.92648C25.6083 1.08898 30.1583 0.170227 35 0.170227C39.8417 0.170227 44.3917 1.08898 48.65 2.92648C52.9083 4.76398 56.6125 7.25773 59.7625 10.4077C62.9125 13.5577 65.4062 17.2619 67.2438 21.5202C69.0812 25.7786 70 30.3286 70 35.1702C70 40.0119 69.0812 44.5619 67.2438 48.8202C65.4062 53.0786 62.9125 56.7827 59.7625 59.9327C56.6125 63.0827 52.9083 65.5765 48.65 67.414C44.3917 69.2515 39.8417 70.1702 35 70.1702Z" fill="#254C65"/>
</svg>
