<svg width="22" height="22" viewBox="0 0 22 22" fill="none" xmlns="http://www.w3.org/2000/svg">
<path d="M11.176 2.75734C14.7547 2.75734 17.424 3.40267 18.6853 3.81334C18.7147 3.81334 18.744 3.87201 18.744 3.90134V8.82934C18.744 10.7947 18.4213 12.5547 17.776 14.1093C17.248 15.3707 16.5147 16.4853 15.5467 17.4533C13.8453 19.184 11.9387 19.9173 11.176 20.152C11.176 20.152 11.176 20.152 11.1467 20.152C11.1173 20.152 11.1467 20.152 11.1173 20.152C10.384 19.9173 8.44799 19.184 6.74666 17.4533C5.80799 16.5147 5.04532 15.3707 4.51732 14.1093C3.87199 12.584 3.54932 10.7947 3.54932 8.82934V3.90134C3.54932 3.87201 3.54932 3.81334 3.60799 3.81334C4.86932 3.43201 7.53866 2.75734 11.1173 2.75734M11.176 1.46667C7.45065 1.46667 4.66399 2.14134 3.28532 2.58134C2.69866 2.75734 2.31732 3.28534 2.31732 3.90134V8.82934C2.31732 18.04 9.00532 20.7973 10.7653 21.3547C10.912 21.384 11.0293 21.4133 11.176 21.4133C11.3227 21.4133 11.4693 21.4133 11.5867 21.3547C13.3467 20.7973 20.0347 18.0693 20.0347 8.82934V3.90134C20.0347 3.28534 19.624 2.75734 19.0667 2.58134C17.688 2.14134 14.9013 1.46667 11.176 1.46667Z" fill="white"/>
<path d="M10.12 15.2827L6.01334 10.824L7.33334 9.62134L10.12 12.672L15.0187 7.36267L16.3093 8.536L10.12 15.2827Z" fill="white"/>
</svg>
