<svg width="33" height="64" viewBox="0 0 33 64" fill="none" xmlns="http://www.w3.org/2000/svg">
<g clip-path="url(#clip0_9_21)">
<path d="M0.925015 55.7992C0.462215 58.5508 1.81502 60.5663 1.81502 60.5663C1.81502 60.5663 2.75841 60.724 3.31021 60.5663C3.86201 60.4085 3.47042 58.2879 3.47042 58.2879L3.80861 57.4817C4.20021 57.4291 4.46721 55.7291 4.46721 55.7291L5.48182 56.0095L5.80221 55.659C6.87021 55.5012 7.13721 54.3971 7.13721 54.3971C9.27321 54.7476 10.7328 51.1547 15.1294 49.665L14.8624 52.329C13.7232 54.993 14.0614 58.0425 14.0614 58.0425H14.809L14.542 59.4621L14.186 59.6724C13.7766 60.9343 13.8656 63.2127 13.8656 63.2127H16.3042L16.5 62.9674L16.7848 63.2127H21.6798C21.6798 63.2127 22.3562 62.6869 22.107 62.021C21.8578 61.355 19.3302 61.3199 19.259 60.7941C19.1878 60.2683 18.4758 59.725 18.4758 59.725V58.1477H19.1166C20.0422 57.2013 19.3658 52.4341 19.3658 51.6104C19.3658 51.0846 19.6506 48.964 20.0066 47.334C20.5406 46.9485 20.7542 46.7031 20.7542 46.7031V45.3361C21.217 44.6701 20.7898 43.7412 20.7542 43.6711C21.2348 43.1803 20.7898 42.1813 20.7542 42.0937V41.1473C20.7542 39.2194 20.8076 34.8729 21.0212 33.8915C21.2882 32.6121 20.7186 28.9842 20.7186 28.9842C21.2882 29.0367 21.6442 28.7738 21.6442 28.7738C21.6798 28.0728 21.751 26.4253 21.8222 24.8129C22.8368 25.6542 25.2932 24.9882 26.0052 24.8655C26.824 24.7253 26.5392 24.2521 26.5392 24.2521L27.447 23.849C27.6962 23.7614 27.9454 23.6562 28.1946 23.551C28.0166 24.3397 27.6428 25.0758 27.2512 25.7944C26.9664 26.3202 26.646 26.8985 26.7172 27.4944C26.7706 27.8975 27.002 28.2656 27.3402 28.4934C27.3758 28.5285 27.4292 28.546 27.4826 28.546C27.6072 28.546 27.6784 28.4233 27.714 28.3006C27.9098 27.8099 28.0878 27.3367 28.2836 26.846C28.3726 26.6006 28.4616 26.3728 28.5328 26.1274L28.7108 28.3006H28.96C28.96 28.2831 31.3808 58.4456 31.3808 58.4456H31.3452C31.2206 58.4456 31.1316 58.5683 31.1316 58.691C31.1316 58.8137 31.2562 58.9013 31.363 58.9013H31.5054L31.6478 60.7591H31.986C31.986 60.7415 31.8436 58.8487 31.8436 58.8487H31.986C32.1106 58.8312 32.1996 58.726 32.1996 58.6034C32.1996 58.4807 32.075 58.393 31.9682 58.393H31.8258H31.9148L29.494 28.2305H29.7432C29.7432 28.213 29.316 22.9201 29.316 22.9201C29.494 22.85 29.672 22.7799 29.8144 22.7799C30.5086 22.7273 30.3484 22.2716 30.3484 22.2716C30.6332 22.184 30.384 21.6757 30.384 21.6757C30.562 21.5531 30.3484 20.9922 30.3484 20.9922L30.384 20.3262C30.384 20.3262 29.8322 20.151 29.0846 20.0633L28.96 18.486L27.9632 18.5561L28.0878 20.0984C27.7318 20.2211 27.6784 20.4664 27.6784 20.4664L26.8774 22.0613L26.5036 22.1139V21.9562C25.8628 21.6757 24.3676 21.8335 24.3676 21.8335C23.887 21.518 23.6734 21.7458 23.6734 21.7458C23.1038 21.483 22.9436 21.8335 22.9436 21.8335C22.0002 21.7458 21.9824 21.1324 21.9824 21.1324C21.9824 20.8345 22.0002 20.6592 22.0002 20.6592C22.2494 20.1685 21.6798 19.9757 21.6798 19.9757C21.6798 19.9757 21.84 19.2571 22.3028 17.9251C22.7656 16.6107 20.772 12.9302 20.772 12.9302C20.7186 12.3869 20.0066 11.826 20.0066 11.826C19.9532 11.458 20.4872 10.1961 20.4872 10.1961L19.704 9.95075C19.704 9.84559 19.7752 9.56517 19.8286 9.26723C20.3448 9.5126 20.861 9.72291 21.0746 9.74043C21.6086 9.81054 21.573 8.82907 22.1604 8.74144C22.7478 8.65381 22.6232 8.1105 22.6232 8.1105C22.6232 8.1105 23.1394 8.02287 23.0682 7.74245C22.9792 7.46204 22.8724 6.98883 22.8724 6.98883C23.2462 7.02388 23.5132 6.62078 23.5132 6.62078C23.353 6.53315 23.086 5.11353 23.086 5.11353C23.1038 5.04343 23.1216 4.97332 23.1394 4.90322L23.353 4.85064C23.353 4.85064 24.688 3.13307 22.641 1.34541C20.2558 -0.740205 17.835 0.731992 17.835 0.731992C17.4968 0.434047 17.0162 0.276311 16.5534 0.32889C15.9126 0.416521 15.343 0.837148 14.987 1.38046C14.631 1.92377 14.4708 2.55471 14.364 3.18565C14.3106 3.50112 14.275 3.83412 14.364 4.14959C14.4352 4.43001 14.5776 4.71043 14.4886 4.97332C14.3996 5.25374 14.097 5.41147 13.9546 5.65684C13.83 5.88468 13.8656 6.14757 13.8478 6.41047C13.8478 6.67336 13.741 6.95378 13.5096 7.05893C13.5986 7.19914 13.9012 7.19914 13.8656 7.35688C13.8656 7.39193 13.83 7.42698 13.7944 7.46203C13.6164 7.61977 13.4028 7.74245 13.1714 7.79503C13.1002 7.81256 13.0112 7.83009 12.94 7.88266C12.851 7.95277 12.8332 8.07545 12.8154 8.16308C12.6552 8.65381 12.1568 8.93423 11.7652 9.28476C11.7296 9.31981 11.694 9.35486 11.694 9.40744C11.694 9.47754 11.7296 9.53012 11.783 9.5827C12.0678 9.84559 12.3526 10.126 12.6374 10.3889C12.7442 10.4941 12.8688 10.5992 13.0112 10.6518C13.2782 10.7394 13.5808 10.5817 13.8656 10.5817C14.0614 10.5817 14.2216 10.6518 14.3818 10.7394C13.919 11.5281 13.5808 12.457 13.3138 13.4735C13.3138 12.3518 12.9934 11.0899 11.8364 10.3714H7.17282C7.17282 10.3714 5.05462 11.8962 4.96561 12.457C4.96561 12.457 3.41702 12.4219 2.90082 13.2457C2.38462 14.0694 1.13861 14.2797 1.13861 14.2797C1.13861 14.2797 2.17101 19.2571 3.54161 19.4149C4.91221 19.5726 5.10802 19.5726 5.10802 19.5726C5.10802 19.5726 5.76662 25.4439 5.57082 26.6532C5.37502 27.8625 5.78442 28.8264 6.62102 29.3522C6.62102 29.3522 6.15822 30.6842 7.01261 31.1749C7.29741 31.3327 7.93821 31.5079 8.73921 31.6481C8.68581 32.4018 8.63242 33.1554 8.57902 33.909C8.52562 34.575 8.49002 35.241 8.31202 35.8895C8.59682 35.7492 8.91722 35.574 9.02402 35.2936C9.05962 35.2059 9.07742 35.1008 9.07742 34.9956C9.16642 33.909 9.27322 32.8224 9.34442 31.7358C9.62922 31.7708 9.91401 31.8059 10.2166 31.8409C10.1988 32.2615 10.2344 32.6646 10.1276 33.0677C9.82502 34.277 9.89622 35.5214 9.96742 36.7658C10.2344 36.7658 10.5014 36.7658 10.7684 36.7658C10.3768 35.3111 11.0176 33.8038 10.982 32.2966C10.982 32.1564 10.982 32.0162 10.9464 31.876C11.4804 31.911 11.9966 31.911 12.4416 31.876C12.4416 34.5575 13.0468 36.5555 13.5986 37.7823C13.5986 38.2029 13.563 38.6586 13.5274 38.9565C13.4384 39.6225 13.8478 39.7102 13.8478 39.7102C13.9546 40.6566 14.3462 41.7432 14.6844 42.5669L14.8446 44.2319C14.275 44.5474 13.2426 45.1257 11.8186 45.9319C9.61141 47.1938 7.03042 49.8228 5.65982 49.9279C4.28922 50.0155 4.39602 50.5413 4.39602 50.5413C3.38142 50.7867 3.59502 51.7682 3.59502 51.7682C1.90402 52.0486 1.01402 52.5568 1.01402 52.5568L0.871615 55.1507L1.19202 55.2033L0.978416 55.7641L0.925015 55.7992ZM28.3726 24.2871L28.4616 25.4614C28.1056 26.1099 27.8208 26.7934 27.6072 27.4944C27.5716 27.5996 27.536 27.7047 27.4648 27.7924C27.3936 27.88 27.269 27.9326 27.1622 27.88C27.0376 27.8274 27.0198 27.6697 27.002 27.547C26.9842 27.3192 26.9664 27.1089 27.002 26.881C27.091 25.9171 27.9098 25.1635 28.3726 24.3047V24.2871Z" fill="#EED7BA"/>
</g>
<defs>
<clipPath id="clip0_9_21">
<rect width="33" height="64" fill="white"/>
</clipPath>
</defs>
</svg>
